<svg fill="none" height="32" viewBox="0 0 162 32" width="162" xmlns="http://www.w3.org/2000/svg"><g fill="#ef5f4c"><path d="m26.6363 21.56c-.9696 1.8546-2.4073 3.4234-4.1705 4.5507s-3.7905 1.7739-5.8808 1.8756l.3963-2.055c.0294-.1543.0222-.3133-.0213-.4643-.0434-.1509-.1218-.2895-.2287-.4045l-2.4675-2.5412c-.133-.1436-.221-.3231-.253-.5162-.032-.193-.0066-.3913.073-.5701l1.7125-3.8425c.088-.1974.2377-.3611.4265-.4663.1889-.1052.4067-.1464.621-.1174l2.8525.385c.1381.0189.2709.0661.39.1387zm-12.0475-9.685 1.5362-.845c.0678-.0367.1308-.0816.1875-.1337l3.3638-3.04129c.1674-.15227.2782-.35684.3143-.58026s-.0046-.45248-.1156-.64974l-1.3125-2.35125c-.8419-.18238-1.701-.27415-2.5625-.27375-2.7391-.00417-5.3966.93268-7.52749 2.65375l-1.4725 3.48124c-.09946.2357-.10482.5005-.01499.74l1.43749 3.8338c.05907.1566.15651.2959.2834.4051s.27916.1848.44286.2199l.33624.0725 1.66499-2.9063c.0879-.1522.2144-.2786.3667-.3664s.325-.1338.5008-.1336h2.0888c.1688.0003.335-.0427.4825-.125z" opacity=".2"/><path d="m16 3c-2.5712 0-5.0846.76244-7.22241 2.1909-2.13784 1.42845-3.80408 3.45878-4.78802 5.8342-.98394 2.3755-1.24138 4.9893-.73977 7.5111.50161 2.5217 1.73973 4.8381 3.55782 6.6562 1.81808 1.8181 4.13448 3.0562 6.65618 3.5578 2.5218.5016 5.1357.2442 7.5111-.7398 2.3754-.9839 4.4058-2.6501 5.8342-4.788 1.4285-2.1378 2.1909-4.6512 2.1909-7.2224-.0036-3.4467-1.3744-6.75118-3.8116-9.18837-2.4372-2.43718-5.7417-3.80799-9.1884-3.81163zm11 13c.0011 1.4112-.2705 2.8094-.8 4.1175l-5.5875-3.4363c-.2376-.1465-.5033-.2415-.78-.2787l-2.8525-.385c-.3931-.0513-.7925.0146-1.1483.1894-.3557.1748-.652.4507-.8517.7931h-1.09l-.475-.9825c-.1313-.2736-.3235-.5135-.5618-.7013-.2384-.1879-.5165-.3187-.8132-.3824l-1-.2163.9775-1.7175h2.0888c.3379-.0007.6703-.0867.9662-.25l1.5313-.845c.1345-.075.2603-.1647.375-.2675l3.3637-3.0425c.3373-.30223.5614-.7104.6355-1.15716s-.0063-.90543-.228-1.30034l-.045-.08125c1.8823.8925 3.4728 2.30049 4.587 4.06055 1.1143 1.7601 1.7065 3.8001 1.708 5.8832zm-9.0862-10.8325 1.0862 1.945-3.3637 3.0425-1.53.845h-2.0888c-.3516-.0005-.6971.0916-1.0017.2672s-.5575.4283-.7333.7328l-1.09124 1.9038-1.26875-3.38 1.3675-3.2338c1.21039-.93526 2.60289-1.60738 4.08809-1.97331s3.0305-.41759 4.5369-.15169zm-12.91379 10.8325c-.00167-1.635.3631-3.2495 1.0675-4.725l1.4175 3.7838c.11812.3132.31301.5918.56679.8102s.55832.3696.88571.4398l2.67879.5762.4762.99c.1653.3367.4214.6205.7395.8193s.6854.3047 1.0605.3057h.185l-.9037 2.0287c-.1593.3573-.2103.7533-.1467 1.1393.0635.3859.2388.7447.5042 1.032l.0175.0175 2.4512 2.525-.2425 1.25c-2.8727-.0669-5.6055-1.2538-7.61534-3.3075-2.0098-2.0537-3.13739-4.8115-3.14215-7.685zm12.82249 10.8475.1413-.7262c.058-.3086.043-.6264-.0438-.9282-.0868-.3017-.2431-.5789-.4562-.8093-.0062-.0056-.012-.0114-.0175-.0176l-2.4463-2.5237 1.7125-3.8425 2.8525.385 5.715 3.515c-.828 1.3003-1.9195 2.4125-3.204 3.2647-1.2846.8522-2.7336 1.4255-4.2535 1.6828z"/><path d="m51.34 8.96v2.74h-3.72v11.3h-3.42v-11.3h-3.72v-2.74zm5.1364 4.74c.4-.6133.9-1.0933 1.5-1.44.6-.36 1.2667-.54 2-.54v3.62h-.94c-.8533 0-1.4933.1867-1.92.56-.4267.36-.64 1-.64 1.92v5.18h-3.42v-11.16h3.42zm4.4547 3.7c0-1.1467.2133-2.1533.64-3.02.44-.8667 1.0333-1.5333 1.78-2s1.58-.7 2.5-.7c.7867 0 1.4733.16 2.06.48.6.32 1.06.74 1.38 1.26v-1.58h3.42v11.16h-3.42v-1.58c-.3333.52-.8.94-1.4 1.26-.5867.32-1.2733.48-2.06.48-.9067 0-1.7333-.2333-2.48-.7-.7467-.48-1.34-1.1533-1.78-2.02-.4267-.88-.64-1.8933-.64-3.04zm8.36.02c0-.8533-.24-1.5267-.72-2.02-.4667-.4933-1.04-.74-1.72-.74s-1.26.2467-1.74.74c-.4667.48-.7 1.1467-.7 2s.2333 1.5333.7 2.04c.48.4933 1.06.74 1.74.74s1.2533-.2467 1.72-.74c.48-.4933.72-1.1667.72-2.02zm10.9142 2.38 2.42-7.96h3.64l-3.96 11.16h-4.22l-3.96-11.16h3.66zm18.0195-2.56c0 .32-.02.6533-.06 1h-7.74c.0534.6933.2734 1.2267.66 1.6.4.36.8867.54 1.46.54.8534 0 1.4467-.36 1.78-1.08h3.64c-.1866.7333-.5266 1.3933-1.02 1.98-.48.5867-1.0866 1.0467-1.82 1.38-.7333.3333-1.5533.5-2.46.5-1.0933 0-2.0666-.2333-2.92-.7-.8533-.4667-1.52-1.1333-2-2s-.72-1.88-.72-3.04.2334-2.1733.7-3.04c.48-.8667 1.1467-1.5333 2-2 .8534-.4667 1.8334-.7 2.94-.7 1.08 0 2.04.2267 2.88.68s1.4934 1.1 1.96 1.94c.48.84.72 1.82.72 2.94zm-3.5-.9c0-.5867-.2-1.0533-.6-1.4s-.9-.52-1.5-.52c-.5733 0-1.06.1667-1.46.5-.3866.3333-.6266.8067-.72 1.42zm8.7242-8.14v14.8h-3.42v-14.8zm6.719 3.48c.786 0 1.473.16 2.06.48.6.32 1.06.74 1.38 1.26v-1.58h3.42v11.14c0 1.0267-.207 1.9533-.62 2.78-.4.84-1.02 1.5067-1.86 2-.827.4933-1.86.74-3.1.74-1.654 0-2.994-.3933-4.02-1.18-1.027-.7733-1.614-1.8267-1.76-3.16h3.38c.106.4267.36.76.76 1 .4.2533.893.38 1.48.38.706 0 1.266-.2067 1.68-.62.426-.4.64-1.0467.64-1.94v-1.58c-.334.52-.794.9467-1.38 1.28-.587.32-1.274.48-2.06.48-.92 0-1.754-.2333-2.5-.7-.747-.48-1.34-1.1533-1.78-2.02-.427-.88-.64-1.8933-.64-3.04s.213-2.1533.64-3.02c.44-.8667 1.033-1.5333 1.78-2 .746-.4667 1.58-.7 2.5-.7zm3.44 5.74c0-.8533-.24-1.5267-.72-2.02-.467-.4933-1.04-.74-1.72-.74s-1.26.2467-1.74.74c-.467.48-.7 1.1467-.7 2s.233 1.5333.7 2.04c.48.4933 1.06.74 1.74.74s1.253-.2467 1.72-.74c.48-.4933.72-1.1667.72-2.02zm9.314-3.72c.4-.6133.9-1.0933 1.5-1.44.6-.36 1.266-.54 2-.54v3.62h-.94c-.854 0-1.494.1867-1.92.56-.427.36-.64 1-.64 1.92v5.18h-3.42v-11.16h3.42zm4.454 3.7c0-1.1467.214-2.1533.64-3.02.44-.8667 1.034-1.5333 1.78-2 .747-.4667 1.58-.7 2.5-.7.787 0 1.474.16 2.06.48.6.32 1.06.74 1.38 1.26v-1.58h3.42v11.16h-3.42v-1.58c-.333.52-.8.94-1.4 1.26-.586.32-1.273.48-2.06.48-.906 0-1.733-.2333-2.48-.7-.746-.48-1.34-1.1533-1.78-2.02-.426-.88-.64-1.8933-.64-3.04zm8.36.02c0-.8533-.24-1.5267-.72-2.02-.466-.4933-1.04-.74-1.72-.74s-1.26.2467-1.74.74c-.466.48-.7 1.1467-.7 2s.234 1.5333.7 2.04c.48.4933 1.06.74 1.74.74s1.254-.2467 1.72-.74c.48-.4933.72-1.1667.72-2.02zm20.135-5.7c1.386 0 2.486.42 3.3 1.26.826.84 1.24 2.0067 1.24 3.5v6.52h-3.4v-6.06c0-.72-.194-1.2733-.58-1.66-.374-.4-.894-.6-1.56-.6-.667 0-1.194.2-1.58.6-.374.3867-.56.94-.56 1.66v6.06h-3.4v-6.06c0-.72-.194-1.2733-.58-1.66-.374-.4-.894-.6-1.56-.6-.667 0-1.194.2-1.58.6-.374.3867-.56.94-.56 1.66v6.06h-3.42v-11.16h3.42v1.4c.346-.4667.8-.8333 1.36-1.1.56-.28 1.193-.42 1.9-.42.84 0 1.586.18 2.24.54.666.36 1.186.8733 1.56 1.54.386-.6133.913-1.1133 1.58-1.5.666-.3867 1.393-.58 2.18-.58z"/></g></svg>