<svg fill="none" height="24" viewBox="0 0 24 24" width="24" xmlns="http://www.w3.org/2000/svg"><g fill="#ef5f4c"><path d="m19.5938 7.59375-3.0938 2.90625 3 8.25-2.25 2.25-4.5-6.75-2.25 2.25v2.25l-2.25 2.25-1.5-3.75-3.75-1.5 2.25-2.25h2.25l2.25-2.25-6.75-4.5 2.25-2.25 8.25 3 2.9062-3.09375c.4227-.42269.996-.66016 1.5938-.66016s1.1711.23747 1.5938.66016c.4226.42269.6601.99597.6601 1.59375 0 .59777-.2375 1.17106-.6601 1.59375z" opacity=".2"/><path d="m17.3747 10.7072 2.7319-2.57152.0159-.015c.5627-.56267.8788-1.32582.8788-2.12156s-.3161-1.55889-.8788-2.12156-1.3258-.87878-2.1216-.87878c-.7957 0-1.5588.31611-2.1215.87878l-.015.01594-2.5716 2.73187-7.78123-2.83125c-.13411-.04878-.27936-.05828-.41868-.02739-.13933.03088-.26695.10088-.36788.20177l-2.25 2.25c-.07841.07846-.13843.17334-.17575.2778-.03731.10446-.051.2159-.04006.32628.01094.11039.04623.21697.10333.31207.05709.0951.13457.17636.22685.23791l5.98969 3.99284-1.38938 1.3847h-1.93968c-.19865.0001-.38915.0789-.52969.2193l-2.25 2.25c-.08775.0876-.15244.1955-.18828.3141-.03584.1187-.04172.2444-.01711.3658.02462.1215.07895.235.15814.3303.0792.0954.18079.1696.29569.2161l3.45187 1.3809 1.37813 3.4453.00562.015c.04768.1154.12341.2171.22033.2958.09693.0788.21197.132.3347.155s.24926.015.36811-.0233c.11885-.0382.22626-.1056.31249-.1959l2.23779-2.2388c.07-.0693.1257-.1518.1638-.2427.0382-.0909.058-.1884.0584-.2869v-1.9397l1.3838-1.3838 3.9928 5.9897c.0615.0923.1428.1698.2379.2269s.2017.0923.312.1033c.1104.0109.2219-.0028.3263-.0401.1045-.0373.1994-.0973.2778-.1757l2.25-2.25c.1009-.1009.1709-.2286.2018-.3679s.0214-.2846-.0274-.4187zm-.0066 9.1154-3.9928-5.9897c-.0613-.0928-.1425-.1709-.2377-.2284-.0951-.0576-.2019-.0932-.3126-.1044-.0247-.0014-.0494-.0014-.0741 0-.0985-.0001-.196.0192-.2871.0569-.091.0376-.1738.0928-.2435.1624l-2.24998 2.25c-.0698.0697-.12518.1524-.16298.2434-.03781.0911-.05729.1887-.05733.2873v1.9396l-1.22532 1.2254-1.07812-2.6963c-.03772-.0936-.09395-.1786-.16531-.25s-.1564-.1276-.25-.1653l-2.69438-1.0781 1.22438-1.2253h1.93875c.09852 0 .19609-.0193.28713-.0569.09105-.0377.17379-.0929.24349-.1625l2.24997-2.25c.0786-.0785.1388-.1734.1762-.278.0374-.1045.0511-.2161.0402-.3266s-.0463-.2172-.1035-.3124-.1348-.1765-.2272-.238l-5.98879-3.99377 1.26562-1.26468 7.80187 2.83687c.1375.05051.2867.05967.4293.02635s.2724-.10766.3732-.21385l2.9006-3.0825c.2849-.2609.6594-.40185 1.0456-.39352.3861.00834.7542.16534 1.0275.43829.2734.27295.4308.64082.4397 1.02699.0088.38617-.1316.76086-.3921 1.04605l-3.0816 2.90063c-.1062.10084-.1805.23054-.2139.37314-.0333.1427-.0241.2919.0264.4294l2.8369 7.8018z"/></g></svg>