<svg fill="none" height="24" viewBox="0 0 24 24" width="24" xmlns="http://www.w3.org/2000/svg"><g fill="#ef5f4c"><path d="m21 5.25v11.4431l-3.7238-3.7237c-.1406-.1406-.3313-.2195-.5301-.2195s-.3895.0789-.5302.2195l-2.4056 2.4056-4.65467-4.6556c-.06966-.0698-.15238-.1251-.24342-.1628-.09105-.0378-.18865-.0572-.28721-.0572s-.19616.0194-.28721.0572c-.09104.0377-.17376.093-.24342.1628l-5.09437 5.0953v-10.5647c0-.19891.07902-.38968.21967-.53033s.33142-.21967.53033-.21967h16.5c.1989 0 .3897.07902.5303.21967.1407.14065.2197.33142.2197.53033z" opacity=".2"/><path d="m20.25 3.75h-16.5c-.39782 0-.77936.15804-1.06066.43934s-.43934.66284-.43934 1.06066v13.5c0 .3978.15804.7794.43934 1.0607s.66284.4393 1.06066.4393h16.5c.3978 0 .7794-.158 1.0607-.4393s.4393-.6629.4393-1.0607v-13.5c0-.39782-.158-.77936-.4393-1.06066s-.6629-.43934-1.0607-.43934zm0 1.5v9.6328l-2.4441-2.4431c-.1393-.1393-.3046-.2499-.4866-.3253-.1821-.0754-.3771-.1142-.5741-.1142-.1971 0-.3921.0388-.5741.1142-.1821.0754-.3474.186-.4867.3253l-1.875 1.875-4.12502-4.125c-.28128-.2811-.66266-.439-1.06032-.439-.39765 0-.77903.1579-1.06031.439l-3.81375 3.8137v-8.7534zm-16.5 10.875 4.875-4.875 7.5 7.5h-12.375zm16.5 2.625h-2.0034l-3.375-3.375 1.875-1.875 3.5034 3.5044zm-6.75-9.375c0-.2225.066-.44001.1896-.62502.1236-.185.2993-.3292.5049-.41434.2055-.08515.4317-.10743.65-.06402.2182.0434.4187.15055.576.30788.1573.15734.2645.35779.3079.57602s.0211.44443-.064.65c-.0852.20558-.2294.38128-.4144.50488s-.4025.1896-.625.1896c-.2984 0-.5845-.1185-.7955-.3295-.211-.21098-.3295-.49713-.3295-.7955z"/></g></svg>