<svg fill="none" height="24" viewBox="0 0 24 24" width="24" xmlns="http://www.w3.org/2000/svg"><path d="m21.5306 20.4693-4.6941-4.6931c1.3606-1.6334 2.039-3.7284 1.8942-5.84929-.1448-2.12087-1.1017-4.10426-2.6716-5.53759s-3.632-2.20624-5.7572-2.15794c-2.12527.0483-4.15009.91409-5.65326 2.41726s-2.36896 3.52799-2.41726 5.65326c-.0483 2.1252.72461 4.1873 2.15794 5.7572s3.41672 2.5268 5.53759 2.6716c2.12089.1448 4.21589-.5336 5.84929-1.8942l4.6931 4.6941c.0697.0697.1525.125.2435.1627s.1886.0571.2872.0571c.0985 0 .1961-.0194.2871-.0571.0911-.0377.1738-.093.2435-.1627s.125-.1524.1627-.2435c.0377-.091.0571-.1886.0571-.2871 0-.0986-.0194-.1962-.0571-.2872s-.093-.1738-.1627-.2435zm-17.78063-9.9693c0-1.33505.39588-2.6401 1.13758-3.75013s1.79591-1.9752 3.02931-2.48609 2.59064-.64456 3.89994-.38411c1.3094.26045 2.5121.90332 3.4561 1.84733.944.944 1.5869 2.14674 1.8474 3.45611.2604 1.30939.1268 2.66659-.3841 3.89999s-1.3761 2.2876-2.4861 3.0293c-1.1101.7417-2.4151 1.1376-3.7501 1.1376-1.78963-.002-3.50537-.7138-4.77081-1.9792-1.26544-1.2655-1.97723-2.9812-1.97922-4.7708z" fill="#6c6c6c"/></svg>