<svg fill="none" height="24" viewBox="0 0 24 24" width="24" xmlns="http://www.w3.org/2000/svg"><g fill="#ef5f4c"><path d="m12 2.25c-1.9891 0-3.89678.79018-5.3033 2.1967s-2.1967 3.31418-2.1967 5.3033c0 6.75 7.5 12 7.5 12s7.5-5.25 7.5-12c0-1.98912-.7902-3.89678-2.1967-5.3033s-3.3142-2.1967-5.3033-2.1967zm0 10.5c-.5933 0-1.1734-.1759-1.6667-.5056-.49336-.3296-.87788-.7982-1.10494-1.3463-.22706-.5482-.28647-1.15143-.17072-1.73337.11576-.58194.40148-1.11649.82104-1.53605.41952-.41956.95412-.70528 1.53602-.82104.582-.11575 1.1852-.05634 1.7334.17072.5481.22706 1.0167.61158 1.3463 1.10493.3297.49335.5056 1.07337.5056 1.66671 0 .7956-.3161 1.5587-.8787 2.1213s-1.3257.8787-2.1213.8787z" opacity=".2"/><path d="m12 6c-.7417 0-1.4667.21993-2.08339.63199-.61668.41205-1.09733.99772-1.38116 1.68295-.28383.68522-.35809 1.43922-.2134 2.16666.1447.7274.50185 1.3956 1.0263 1.9201.52445.5244 1.19265.8816 1.92005 1.0262.7274.1447 1.4814.0705 2.1667-.2134.6852-.2838 1.2709-.7644 1.6829-1.3811.4121-.6167.632-1.3417.632-2.0834 0-.99456-.3951-1.94839-1.0983-2.65165-.7033-.70326-1.6571-1.09835-2.6517-1.09835zm0 6c-.445 0-.88-.132-1.25-.3792s-.6584-.5986-.82873-1.0098c-.1703-.4111-.21485-.8635-.12804-1.29995.08682-.43646.30107-.83737.61577-1.15204s.7156-.52896 1.152-.61578c.4365-.08681.8889-.04226 1.3.12804.4112.1703.7626.45869 1.0098.8287s.3792.80502.3792 1.25003c0 .5967-.2371 1.169-.659 1.591-.422.4219-.9943.659-1.591.659zm0-10.5c-2.18727.00248-4.28425.87247-5.83089 2.41911s-2.41663 3.64362-2.41911 5.83089c0 2.9438 1.36031 6.0638 3.9375 9.0234 1.15802 1.3374 2.4614 2.5417 3.8859 3.5907.1261.0883.2764.1357.4303.1357.154 0 .3043-.0474.4304-.1357 1.4219-1.0494 2.7227-2.2537 3.8784-3.5907 2.5734-2.9596 3.9375-6.0796 3.9375-9.0234-.0025-2.18727-.8725-4.28425-2.4191-5.83089s-3.6436-2.41663-5.8309-2.41911zm0 19.3125c-1.5497-1.2187-6.75-5.6953-6.75-11.0625 0-1.79021.71116-3.5071 1.97703-4.77297s2.98277-1.97703 4.77297-1.97703 3.5071.71116 4.773 1.97703c1.2658 1.26587 1.977 2.98276 1.977 4.77297 0 5.3653-5.2003 9.8438-6.75 11.0625z"/></g></svg>